<svg viewBox="0 0 220 140" xmlns="http://www.w3.org/2000/svg" shape-rendering="crispEdges">
  <rect x="0" y="122" width="220" height="4" fill="#3a3a3a"/>
  <g>
    <animateTransform attributeName="transform" type="translate"
      values="0,0; 3,-1; 0,0; -3,-1; 0,0" dur="0.9s" repeatCount="indefinite"/>

    <rect x="6" y="76" width="10" height="6" fill="#2E7D32"/>
    <rect x="16" y="80" width="14" height="8" fill="#388E3C"/>
    <rect x="30" y="74" width="16" height="12" fill="#388E3C"/>
    <rect x="46" y="70" width="18" height="14" fill="#4CAF50"/>

    <rect x="60" y="76" width="8" height="12" fill="#4CAF50"/>
    <rect x="64" y="60" width="52" height="28" fill="#4CAF50"/>
    <rect x="60" y="66" width="8" height="18" fill="#4CAF50"/>
    <rect x="66" y="90" width="42" height="6" fill="#C8E6C9"/>

    <rect x="70" y="54" width="6" height="8" fill="#2E7D32"/>
    <rect x="86" y="50" width="6" height="8" fill="#2E7D32"/>
    <rect x="102" y="46" width="6" height="8" fill="#2E7D32"/>

    <rect x="108" y="42" width="18" height="22" fill="#4CAF50"/>

    <rect x="122" y="24" width="30" height="22" fill="#4CAF50"/>
    <rect x="152" y="28" width="12" height="14" fill="#4CAF50"/>
    <rect x="164" y="32" width="8" height="8" fill="#4CAF50"/>

    <rect x="134" y="30" width="7" height="7" fill="#1b1b1b"/>
    <rect x="136" y="31" width="2" height="2" fill="#ffffff"/>

    <rect x="128" y="46" width="42" height="8" fill="#388E3C"/>
    <rect x="164" y="42" width="8" height="8" fill="#388E3C"/>

    <rect x="134" y="46" width="4" height="6" fill="#ffffff"/>
    <rect x="144" y="46" width="4" height="6" fill="#ffffff"/>
    <rect x="154" y="46" width="4" height="6" fill="#ffffff"/>
    <rect x="163" y="42" width="4" height="6" fill="#ffffff"/>

    <rect x="104" y="66" width="8" height="14" fill="#4CAF50"/>
    <rect x="100" y="78" width="12" height="6" fill="#4CAF50"/>

    <g>
      <rect x="70" y="88" width="18" height="18" fill="#4CAF50"/>
      <rect x="74" y="106" width="10" height="16" fill="#4CAF50"/>
      <rect x="68" y="122" width="6" height="5" fill="#2E7D32"/>
      <rect x="76" y="122" width="6" height="5" fill="#2E7D32"/>
      <rect x="84" y="122" width="6" height="5" fill="#2E7D32"/>
      <rect x="98" y="88" width="18" height="14" fill="#4CAF50"/>
      <rect x="102" y="102" width="10" height="20" fill="#4CAF50"/>
      <rect x="96" y="122" width="6" height="5" fill="#2E7D32"/>
      <rect x="104" y="122" width="6" height="5" fill="#2E7D32"/>
      <rect x="112" y="122" width="6" height="5" fill="#2E7D32"/>
      <animate attributeName="opacity" values="1;1;0;0;1" dur="0.9s" repeatCount="indefinite"/>
    </g>
    <g>
      <rect x="70" y="88" width="18" height="14" fill="#4CAF50"/>
      <rect x="74" y="102" width="10" height="20" fill="#4CAF50"/>
      <rect x="68" y="122" width="6" height="5" fill="#2E7D32"/>
      <rect x="76" y="122" width="6" height="5" fill="#2E7D32"/>
      <rect x="84" y="122" width="6" height="5" fill="#2E7D32"/>
      <rect x="98" y="88" width="18" height="18" fill="#4CAF50"/>
      <rect x="102" y="106" width="10" height="16" fill="#4CAF50"/>
      <rect x="96" y="122" width="6" height="5" fill="#2E7D32"/>
      <rect x="104" y="122" width="6" height="5" fill="#2E7D32"/>
      <rect x="112" y="122" width="6" height="5" fill="#2E7D32"/>
      <animate attributeName="opacity" values="0;0;1;1;0" dur="0.9s" repeatCount="indefinite"/>
    </g>
  </g>
</svg>
