<svg viewBox="0 0 304 192" xmlns="http://www.w3.org/2000/svg" shape-rendering="crispEdges">
<rect x="104" y="176" width="104" height="8" fill="#ECEDED"/>
<g>
<animateTransform attributeName="transform" type="translate" values="0,0; 0,2; 0,0" dur="0.8s" repeatCount="indefinite"/>
<g>
<animateTransform attributeName="transform" type="translate" values="0,0; 0,-2; 0,0; 0,1; 0,0" dur="1.6s" repeatCount="indefinite"/>
<rect x="192" y="80" width="64" height="8" fill="#9CB847"/>
<rect x="192" y="88" width="64" height="8" fill="#9CB847"/>
<rect x="192" y="96" width="64" height="8" fill="#9CB847"/>
<rect x="192" y="104" width="40" height="8" fill="#9CB847"/>
<rect x="232" y="104" width="24" height="8" fill="#87A03D"/>
<rect x="192" y="112" width="8" height="8" fill="#9CB847"/>
<rect x="200" y="112" width="32" height="8" fill="#87A03D"/>
<g>
<animateTransform attributeName="transform" type="translate" values="0,0; 0,-3; 0,0; 0,2; 0,0" dur="1.6s" begin="0.18s" repeatCount="indefinite"/>
<rect x="272" y="72" width="24" height="8" fill="#9CB847"/>
<rect x="248" y="80" width="48" height="8" fill="#9CB847"/>
<rect x="248" y="88" width="32" height="8" fill="#9CB847"/>
<rect x="280" y="88" width="16" height="8" fill="#87A03D"/>
<rect x="248" y="96" width="8" height="8" fill="#9CB847"/>
<rect x="256" y="96" width="24" height="8" fill="#87A03D"/>
</g>
</g>
<rect x="72" y="48" width="40" height="8" fill="#9CB847"/>
<rect x="72" y="56" width="40" height="8" fill="#9CB847"/>
<rect x="72" y="64" width="40" height="8" fill="#9CB847"/>
<rect x="72" y="72" width="40" height="8" fill="#9CB847"/>
<rect x="112" y="72" width="8" height="8" fill="#87A03D"/>
<rect x="120" y="72" width="16" height="8" fill="#9CB847"/>
<rect x="136" y="72" width="8" height="8" fill="#87A03D"/>
<rect x="144" y="72" width="16" height="8" fill="#9CB847"/>
<rect x="160" y="72" width="8" height="8" fill="#87A03D"/>
<rect x="168" y="72" width="32" height="8" fill="#9CB847"/>
<rect x="72" y="80" width="40" height="8" fill="#9CB847"/>
<rect x="112" y="80" width="8" height="8" fill="#87A03D"/>
<rect x="120" y="80" width="16" height="8" fill="#9CB847"/>
<rect x="136" y="80" width="8" height="8" fill="#87A03D"/>
<rect x="144" y="80" width="16" height="8" fill="#9CB847"/>
<rect x="160" y="80" width="8" height="8" fill="#87A03D"/>
<rect x="168" y="80" width="16" height="8" fill="#9CB847"/>
<rect x="184" y="80" width="16" height="8" fill="#87A03D"/>
<rect x="72" y="88" width="112" height="8" fill="#9CB847"/>
<rect x="184" y="88" width="16" height="8" fill="#87A03D"/>
<rect x="96" y="96" width="16" height="8" fill="#87A03D"/>
<rect x="112" y="96" width="72" height="8" fill="#9CB847"/>
<rect x="184" y="96" width="16" height="8" fill="#87A03D"/>
<rect x="96" y="104" width="16" height="8" fill="#87A03D"/>
<rect x="112" y="104" width="72" height="8" fill="#9CB847"/>
<rect x="184" y="104" width="16" height="8" fill="#87A03D"/>
<rect x="96" y="112" width="8" height="8" fill="#87A03D"/>
<rect x="104" y="112" width="24" height="8" fill="#D2D953"/>
<rect x="128" y="112" width="56" height="8" fill="#9CB847"/>
<rect x="184" y="112" width="16" height="8" fill="#87A03D"/>
<rect x="96" y="120" width="32" height="8" fill="#D2D953"/>
<rect x="128" y="120" width="40" height="8" fill="#9CB847"/>
<rect x="168" y="120" width="16" height="8" fill="#D2D953"/>
<rect x="184" y="120" width="16" height="8" fill="#87A03D"/>
<rect x="96" y="128" width="32" height="8" fill="#D2D953"/>
<rect x="128" y="128" width="40" height="8" fill="#9CB847"/>
<rect x="168" y="128" width="16" height="8" fill="#D2D953"/>
<rect x="184" y="128" width="16" height="8" fill="#9CB847"/>
<rect x="128" y="136" width="40" height="8" fill="#9CB847"/>
<g>
<animateTransform attributeName="transform" type="translate" values="0,0; 0,0; -1,2; 0,0; 0,0" keyTimes="0;0.35;0.55;0.75;1" dur="3s" repeatCount="indefinite"/>
<rect x="8" y="16" width="88" height="8" fill="#9CB847"/>
<rect x="8" y="24" width="48" height="8" fill="#9CB847"/>
<rect x="56" y="24" width="24" height="8" fill="#87A03D"/>
<rect x="80" y="24" width="16" height="8" fill="#9CB847"/>
<rect x="8" y="32" width="8" height="8" fill="#9CB847"/>
<rect x="16" y="32" width="8" height="8" fill="#87A03D"/>
<rect x="24" y="32" width="16" height="8" fill="#9CB847"/>
<rect x="40" y="32" width="8" height="8" fill="#87A03D"/>
<rect x="48" y="32" width="16" height="8" fill="#9CB847"/>
<rect x="64" y="32" width="8" height="8" fill="#FFFFFF"/>
<rect x="72" y="32" width="8" height="8" fill="#000000"/>
<rect x="80" y="32" width="16" height="8" fill="#9CB847"/>
<rect x="8" y="40" width="56" height="8" fill="#9CB847"/>
<rect x="64" y="40" width="16" height="8" fill="#000000"/>
<rect x="80" y="40" width="16" height="8" fill="#9CB847"/>
<rect x="8" y="48" width="88" height="8" fill="#9CB847"/>
<rect x="8" y="56" width="56" height="8" fill="#FF7676"/>
<rect x="64" y="56" width="32" height="8" fill="#9CB847"/>
<rect x="64" y="64" width="32" height="8" fill="#9CB847"/>
<rect x="64" y="72" width="32" height="8" fill="#9CB847"/>
<g opacity="0">
<animate attributeName="opacity" values="0;0;1;0;0" keyTimes="0;0.9;0.94;0.98;1" dur="3.4s" repeatCount="indefinite"/>
<rect x="64" y="32" width="16" height="8" fill="#9CB847"/>
<rect x="64" y="40" width="16" height="8" fill="#9CB847"/>
</g>
<g>
<animateTransform attributeName="transform" type="translate" values="0,0; 0,0; 0,4; 0,0; 0,0" keyTimes="0;0.55;0.63;0.71;1" dur="4s" repeatCount="indefinite"/>
<rect x="8" y="64" width="56" height="8" fill="#D2D953"/>
<rect x="8" y="72" width="56" height="8" fill="#87A03D"/>
</g>
</g>
</g>
<g>
<rect x="128" y="144" width="24" height="8" fill="#9CB847"/>
<rect x="160" y="144" width="24" height="8" fill="#9CB847"/>
<rect x="128" y="152" width="24" height="8" fill="#9CB847"/>
<rect x="160" y="152" width="24" height="8" fill="#87A03D"/>
<rect x="128" y="160" width="24" height="8" fill="#9CB847"/>
<rect x="128" y="168" width="24" height="8" fill="#87A03D"/>
<animate attributeName="opacity" values="1;1;0;0;1" dur="0.8s" repeatCount="indefinite"/>
</g>
<g opacity="0">
<rect x="128" y="144" width="24" height="8" fill="#9CB847"/>
<rect x="160" y="144" width="24" height="8" fill="#9CB847"/>
<rect x="128" y="152" width="24" height="8" fill="#87A03D"/>
<rect x="160" y="152" width="24" height="8" fill="#9CB847"/>
<rect x="160" y="160" width="24" height="8" fill="#9CB847"/>
<rect x="160" y="168" width="24" height="8" fill="#87A03D"/>
<animate attributeName="opacity" values="0;0;1;1;0" dur="0.8s" repeatCount="indefinite"/>
</g>
</svg>